<svg width="26" height="38" viewBox="0 0 26 38" fill="none" xmlns="http://www.w3.org/2000/svg">
<path d="M12.8466 0.000156164V0.0196874C11.4314 3.03797 9.32586 5.67281 6.77734 8.06164L9.72422 7.75398L5.71289 12.8346L7.65117 12.2169L5.0243 16.504L6.3157 17.273L1.21805 24.4727L4.03797 24.4874L0 31.0182L4.96578 30.3834L5.90328 32.8907L11.0938 30.9155L10.2075 37.0386H14.3433L13.833 31.7091L16.8164 32.9909L17.6123 31.0547L21.0719 32.693L25.4786 31.0719L22.583 26.0645L21.6113 25.8862L22.141 27.2292L22.7538 28.7843L21.1962 28.1765L17.2191 26.6212V29.4142L16.1132 28.7428L10.6933 25.4616L9.00617 27.1217L7.59758 28.5084L7.76594 26.5381L7.93195 24.612L9.35289 24.7338L10.073 24.0235L10.4785 23.6255L10.9643 23.9185L15.7592 26.8213V24.4849L16.7553 24.8732L20.1708 26.2085L19.773 25.2002L19.292 23.9771L20.5836 24.2138L24.1358 24.8658L21.4381 21.8236L19.5924 22.9199L19.0699 23.2299L18.6695 22.771L17.5539 21.4869L17.5709 21.582L16.133 21.8335L15.6666 19.1528L15.2173 16.5698L16.9361 18.5498L19.3727 21.3526L22.8029 19.319C20.8755 17.7922 19.7164 16.6729 18.9234 15.5054L18.9869 16.4941L19.1408 18.916L17.6759 16.9824L14.983 13.4327L13.2447 17.0899L12.1631 19.3653L11.8629 16.8628L11.5895 14.6095L12.881 14.4557L14.1798 11.7237L14.6949 10.6397L15.4199 11.5944L17.373 14.1675L17.3145 13.2667L17.2437 12.1511L18.296 12.5367L20.0755 13.1886L18.0345 10.442L13.6717 8.18617L12.9734 9.7657L12.2191 11.4795L11.6159 9.70703L11.0325 7.99805L12.3583 7.54648L12.6487 6.88727L12.9612 6.17437L13.6522 6.5332L17.5096 8.52773L18.7961 8.0932C15.4039 5.41273 13.7469 2.71148 12.8464 0L12.8466 0.000156164Z" fill="#0EAA00"/>
</svg>
